<svg width="61" height="21" viewBox="0 0 61 21" fill="none" xmlns="http://www.w3.org/2000/svg">
<g clip-path="url(#clip0_213_143)">
<path d="M82.1013 21C80.6007 21 79.2126 20.7573 77.9371 20.272C76.6804 19.768 75.5831 19.068 74.6452 18.172C73.7261 17.2573 73.0039 16.1933 72.4787 14.98C71.9535 13.7667 71.6909 12.432 71.6909 10.976C71.6909 9.52 71.9535 8.18533 72.4787 6.972C73.0039 5.75867 73.7355 4.704 74.6733 3.808C75.6112 2.89333 76.7085 2.19333 77.9652 1.708C79.2408 1.204 80.6288 0.952001 82.1294 0.952001C83.6488 0.952001 85.0462 1.21333 86.3217 1.736C87.616 2.24 88.7133 2.996 89.6136 4.004L87.7848 5.768C87.0345 4.984 86.1904 4.40533 85.2525 4.032C84.3146 3.64 83.3111 3.444 82.242 3.444C81.1353 3.444 80.1036 3.63067 79.147 4.004C78.2091 4.37733 77.3932 4.9 76.6991 5.572C76.0051 6.244 75.4611 7.04667 75.0672 7.98C74.6921 8.89467 74.5045 9.89333 74.5045 10.976C74.5045 12.0587 74.6921 13.0667 75.0672 14C75.4611 14.9147 76.0051 15.708 76.6991 16.38C77.3932 17.052 78.2091 17.5747 79.147 17.948C80.1036 18.3213 81.1353 18.508 82.242 18.508C83.3111 18.508 84.3146 18.3213 85.2525 17.948C86.1904 17.556 87.0345 16.9587 87.7848 16.156L89.6136 17.92C88.7133 18.928 87.616 19.6933 86.3217 20.216C85.0462 20.7387 83.6394 21 82.1013 21Z" fill="#F8F8FA"/>
<path d="M99.0408 20.944C97.7653 20.944 96.6398 20.7107 95.6644 20.244C94.7078 19.7773 93.9575 19.068 93.4135 18.116C92.8883 17.1453 92.6257 15.932 92.6257 14.476V5.936H95.3268V14.168C95.3268 15.624 95.6738 16.716 96.3678 17.444C97.0806 18.172 98.0748 18.536 99.3503 18.536C100.288 18.536 101.104 18.3493 101.798 17.976C102.492 17.584 103.027 17.024 103.402 16.296C103.777 15.5493 103.965 14.6533 103.965 13.608V5.936H106.666V20.776H104.105V16.772L104.527 17.836C104.04 18.8253 103.308 19.5907 102.333 20.132C101.357 20.6733 100.26 20.944 99.0408 20.944Z" fill="#F8F8FA"/>
<path d="M116.929 20.944C115.428 20.944 114.265 20.5427 113.44 19.74C112.614 18.9373 112.202 17.7893 112.202 16.296V2.688H114.903V16.184C114.903 16.9867 115.1 17.6027 115.494 18.032C115.906 18.4613 116.488 18.676 117.238 18.676C118.082 18.676 118.786 18.4427 119.348 17.976L120.192 19.908C119.78 20.2627 119.283 20.524 118.701 20.692C118.138 20.86 117.548 20.944 116.929 20.944ZM109.669 8.148V5.936H119.179V8.148H109.669Z" fill="#F8F8FA"/>
<path d="M129.507 20.916C128.044 20.916 126.656 20.6733 125.343 20.188C124.049 19.684 123.045 19.04 122.332 18.256L122.98 17.192C123.655 17.8827 124.574 18.4707 125.737 18.956C126.919 19.4227 128.166 19.656 129.479 19.656C130.792 19.656 131.861 19.488 132.687 19.152C133.531 18.7973 134.15 18.3307 134.544 17.752C134.956 17.1733 135.163 16.5293 135.163 15.82C135.163 14.98 134.937 14.308 134.487 13.804C134.037 13.3 133.446 12.8987 132.715 12.6C131.983 12.3013 131.186 12.0493 130.323 11.844C129.46 11.6387 128.588 11.424 127.706 11.2C126.825 10.9573 126.018 10.6493 125.287 10.276C124.555 9.90267 123.964 9.39867 123.514 8.764C123.083 8.11067 122.867 7.27067 122.867 6.244C122.867 5.31067 123.111 4.452 123.599 3.668C124.086 2.884 124.846 2.24933 125.878 1.764C126.909 1.27867 128.232 1.036 129.845 1.036C130.933 1.036 132.002 1.19467 133.052 1.512C134.121 1.82933 135.031 2.25867 135.782 2.8L135.247 3.948C134.422 3.388 133.531 2.97733 132.574 2.716C131.636 2.436 130.726 2.296 129.845 2.296C128.588 2.296 127.547 2.47333 126.722 2.828C125.896 3.18267 125.287 3.65867 124.893 4.256C124.499 4.83467 124.302 5.488 124.302 6.216C124.302 7.056 124.518 7.728 124.949 8.232C125.399 8.736 125.99 9.13733 126.722 9.436C127.453 9.73467 128.26 9.98667 129.141 10.192C130.023 10.3973 130.895 10.6213 131.758 10.864C132.621 11.088 133.418 11.3867 134.15 11.76C134.881 12.1333 135.472 12.6373 135.922 13.272C136.372 13.9067 136.597 14.728 136.597 15.736C136.597 16.6507 136.344 17.5093 135.838 18.312C135.331 19.096 134.553 19.7307 133.502 20.216C132.471 20.6827 131.139 20.916 129.507 20.916Z" fill="#F8F8FA"/>
<path d="M146.765 20.888C145.358 20.888 144.102 20.5707 142.995 19.936C141.907 19.3013 141.035 18.424 140.378 17.304C139.74 16.184 139.422 14.9053 139.422 13.468C139.422 12.012 139.74 10.7333 140.378 9.632C141.035 8.512 141.907 7.63467 142.995 7C144.102 6.36533 145.358 6.048 146.765 6.048C148.172 6.048 149.429 6.36533 150.535 7C151.642 7.63467 152.514 8.512 153.152 9.632C153.79 10.7333 154.109 12.012 154.109 13.468C154.109 14.9053 153.79 16.184 153.152 17.304C152.514 18.424 151.642 19.3013 150.535 19.936C149.429 20.5707 148.172 20.888 146.765 20.888ZM146.765 19.628C147.891 19.628 148.904 19.376 149.804 18.872C150.704 18.3493 151.408 17.6213 151.914 16.688C152.421 15.7547 152.674 14.6813 152.674 13.468C152.674 12.236 152.421 11.1627 151.914 10.248C151.408 9.31467 150.704 8.596 149.804 8.092C148.904 7.56933 147.891 7.308 146.765 7.308C145.64 7.308 144.627 7.56933 143.726 8.092C142.845 8.596 142.141 9.31467 141.616 10.248C141.11 11.1627 140.857 12.236 140.857 13.468C140.857 14.6813 141.11 15.7547 141.616 16.688C142.141 17.6213 142.845 18.3493 143.726 18.872C144.627 19.376 145.64 19.628 146.765 19.628Z" fill="#F8F8FA"/>
<path d="M158.473 20.776V0H159.88V20.776H158.473Z" fill="#F8F8FA"/>
<path d="M169.523 20.776L162.911 6.16H164.403L170.593 19.992H169.917L176.163 6.16H177.598L170.958 20.776H169.523Z" fill="#F8F8FA"/>
<path d="M186.227 20.888C184.745 20.888 183.432 20.5707 182.288 19.936C181.162 19.3013 180.272 18.424 179.615 17.304C178.977 16.184 178.658 14.9053 178.658 13.468C178.658 12.012 178.958 10.7333 179.559 9.632C180.178 8.512 181.022 7.63467 182.091 7C183.16 6.36533 184.361 6.048 185.692 6.048C187.024 6.048 188.215 6.356 189.266 6.972C190.335 7.588 191.17 8.456 191.77 9.576C192.389 10.6773 192.698 11.956 192.698 13.412C192.698 13.468 192.689 13.5333 192.67 13.608C192.67 13.664 192.67 13.7293 192.67 13.804H179.699V12.712H191.91L191.348 13.244C191.367 12.1053 191.123 11.088 190.616 10.192C190.129 9.27733 189.463 8.568 188.619 8.064C187.774 7.54133 186.799 7.28 185.692 7.28C184.604 7.28 183.629 7.54133 182.766 8.064C181.922 8.568 181.256 9.27733 180.769 10.192C180.281 11.088 180.037 12.1147 180.037 13.272V13.524C180.037 14.7187 180.3 15.7827 180.825 16.716C181.369 17.6307 182.11 18.3493 183.048 18.872C183.985 19.376 185.055 19.628 186.255 19.628C187.193 19.628 188.065 19.46 188.872 19.124C189.697 18.788 190.391 18.2747 190.954 17.584L191.77 18.508C191.132 19.292 190.325 19.8893 189.35 20.3C188.393 20.692 187.352 20.888 186.227 20.888Z" fill="#F8F8FA"/>
<path d="M197.05 20.776V6.16H198.401V10.164L198.26 9.716C198.673 8.54 199.367 7.63467 200.342 7C201.318 6.36533 202.537 6.048 204 6.048V7.42C203.944 7.42 203.887 7.42 203.831 7.42C203.775 7.40133 203.719 7.392 203.662 7.392C202.03 7.392 200.755 7.90533 199.836 8.932C198.917 9.94 198.457 11.3493 198.457 13.16V20.776H197.05Z" fill="#F8F8FA"/>
<path d="M16.0157 2.10933C15.7806 7.7572 12.2946 15.9348 10.5809 19.3177H27.6195C29.7347 16.7291 32.124 6.76686 33.0543 2.10933H16.0157Z" fill="#F8F8FA"/>
<path d="M36.2857 2.10933C33.583 14.5817 31.5365 18.7784 30.851 19.3177H48.4771C57.7602 19.3177 60.4727 7.84544 60.6686 2.10933H36.2857Z" fill="#F8F8FA"/>
<path d="M6.76193 19.3177C-0.435409 16.6702 0.00524439 12.4049 0.00524405 9.31624H11.4622C10.2872 13.2874 8.52455 17.4056 6.76193 19.3177Z" fill="#F8F8FA"/>
</g>
<defs>
<clipPath id="clip0_213_143">
<rect width="61" height="21" fill="white"/>
</clipPath>
</defs>
</svg>
