<svg width="278" height="29" viewBox="0 0 278 29" fill="none" xmlns="http://www.w3.org/2000/svg">
<path d="M111.883 28.7568C109.838 28.7568 107.947 28.4245 106.208 27.7599C104.496 27.0697 103 26.1112 101.722 24.8842C100.47 23.6317 99.4857 22.1747 98.77 20.5132C98.0543 18.8517 97.6964 17.024 97.6964 15.0302C97.6964 13.0364 98.0543 11.2088 98.77 9.54726C99.4857 7.88575 100.483 6.44152 101.761 5.21457C103.039 3.96205 104.534 3.00349 106.247 2.33889C107.985 1.64872 109.877 1.30364 111.921 1.30364C113.992 1.30364 115.896 1.66151 117.634 2.37723C119.398 3.06739 120.894 4.10264 122.121 5.48296L119.628 7.89853C118.606 6.82495 117.456 6.03254 116.177 5.5213C114.899 4.98451 113.532 4.71611 112.075 4.71611C110.567 4.71611 109.161 4.97173 107.857 5.48296C106.579 5.99419 105.467 6.70992 104.521 7.63014C103.576 8.55035 102.834 9.6495 102.297 10.9276C101.786 12.1801 101.531 13.5476 101.531 15.0302C101.531 16.5128 101.786 17.8931 102.297 19.1712C102.834 20.4237 103.576 21.5101 104.521 22.4303C105.467 23.3505 106.579 24.0662 107.857 24.5775C109.161 25.0887 110.567 25.3443 112.075 25.3443C113.532 25.3443 114.899 25.0887 116.177 24.5775C117.456 24.0407 118.606 23.2227 119.628 22.1236L122.121 24.5391C120.894 25.9195 119.398 26.9675 117.634 27.6832C115.896 28.3989 113.979 28.7568 111.883 28.7568Z" fill="#02DF81"/>
<path d="M134.967 28.6801C133.229 28.6801 131.695 28.3606 130.366 27.7215C129.063 27.0825 128.04 26.1112 127.299 24.8075C126.583 23.4783 126.225 21.8168 126.225 19.823V8.12859H129.906V19.4013C129.906 21.3951 130.379 22.8904 131.325 23.8873C132.296 24.8842 133.651 25.3827 135.389 25.3827C136.667 25.3827 137.779 25.127 138.725 24.6158C139.671 24.079 140.399 23.3122 140.91 22.3153C141.422 21.2928 141.677 20.0659 141.677 18.6344V8.12859H145.358V28.4501H141.869V22.9671L142.444 24.4241C141.779 25.7789 140.783 26.8269 139.453 27.5682C138.124 28.3095 136.629 28.6801 134.967 28.6801Z" fill="#02DF81"/>
<path d="M159.344 28.6801C157.299 28.6801 155.714 28.1305 154.589 27.0314C153.465 25.9322 152.902 24.3602 152.902 22.3153V3.68087H156.583V22.1619C156.583 23.2611 156.852 24.1046 157.388 24.6925C157.951 25.2804 158.743 25.5744 159.766 25.5744C160.916 25.5744 161.874 25.2549 162.641 24.6158L163.792 27.2614C163.229 27.7471 162.552 28.105 161.759 28.335C160.993 28.5651 160.187 28.6801 159.344 28.6801ZM149.451 11.1576V8.12859H162.411V11.1576H149.451Z" fill="#02DF81"/>
<path d="M176.485 28.6418C174.491 28.6418 172.6 28.3095 170.811 27.6449C169.047 26.9547 167.679 26.0728 166.708 24.9992L167.59 23.5422C168.51 24.488 169.763 25.2932 171.347 25.9578C172.958 26.5968 174.658 26.9164 176.447 26.9164C178.236 26.9164 179.693 26.6863 180.818 26.2262C181.968 25.7405 182.812 25.1015 183.349 24.3091C183.911 23.5167 184.192 22.6348 184.192 21.6635C184.192 20.5132 183.885 19.593 183.272 18.9028C182.658 18.2126 181.853 17.6631 180.856 17.2541C179.859 16.8451 178.773 16.5 177.597 16.2188C176.421 15.9377 175.233 15.6437 174.031 15.337C172.83 15.0047 171.731 14.5829 170.734 14.0717C169.737 13.5604 168.932 12.8703 168.318 12.0012C167.73 11.1065 167.436 9.95624 167.436 8.55035C167.436 7.27227 167.769 6.09644 168.433 5.02285C169.098 3.94927 170.133 3.08017 171.539 2.41557C172.945 1.75097 174.747 1.41867 176.945 1.41867C178.428 1.41867 179.885 1.63594 181.316 2.07049C182.773 2.50504 184.013 3.09295 185.036 3.83424L184.307 5.40628C183.182 4.63943 181.968 4.07707 180.665 3.71921C179.386 3.33579 178.147 3.14408 176.945 3.14408C175.233 3.14408 173.814 3.38691 172.689 3.87258C171.565 4.35825 170.734 5.01007 170.197 5.82804C169.66 6.62045 169.392 7.51511 169.392 8.51201C169.392 9.66228 169.686 10.5825 170.274 11.2727C170.887 11.9628 171.692 12.5124 172.689 12.9214C173.686 13.3304 174.785 13.6755 175.987 13.9566C177.188 14.2378 178.377 14.5445 179.553 14.8769C180.728 15.1836 181.815 15.5926 182.812 16.1038C183.809 16.615 184.614 17.3052 185.227 18.1743C185.841 19.0434 186.148 20.1681 186.148 21.5484C186.148 22.8009 185.802 23.9768 185.112 25.0759C184.422 26.1495 183.361 27.0186 181.93 27.6832C180.524 28.3222 178.709 28.6418 176.485 28.6418Z" fill="#02DF81"/>
<path d="M200.004 28.6034C198.086 28.6034 196.374 28.1689 194.866 27.2998C193.383 26.4307 192.194 25.2293 191.3 23.6956C190.431 22.1619 189.996 20.4109 189.996 18.4427C189.996 16.4489 190.431 14.6979 191.3 13.1898C192.194 11.6561 193.383 10.4547 194.866 9.5856C196.374 8.71651 198.086 8.28196 200.004 8.28196C201.921 8.28196 203.633 8.71651 205.141 9.5856C206.65 10.4547 207.838 11.6561 208.707 13.1898C209.576 14.6979 210.011 16.4489 210.011 18.4427C210.011 20.4109 209.576 22.1619 208.707 23.6956C207.838 25.2293 206.65 26.4307 205.141 27.2998C203.633 28.1689 201.921 28.6034 200.004 28.6034ZM200.004 26.878C201.537 26.878 202.918 26.5329 204.144 25.8428C205.371 25.127 206.33 24.1301 207.02 22.8521C207.71 21.574 208.055 20.1042 208.055 18.4427C208.055 16.7556 207.71 15.2858 207.02 14.0333C206.33 12.7552 205.371 11.7711 204.144 11.081C202.918 10.3652 201.537 10.0074 200.004 10.0074C198.47 10.0074 197.089 10.3652 195.863 11.081C194.661 11.7711 193.703 12.7552 192.987 14.0333C192.297 15.2858 191.952 16.7556 191.952 18.4427C191.952 20.1042 192.297 21.574 192.987 22.8521C193.703 24.1301 194.661 25.127 195.863 25.8428C197.089 26.5329 198.47 26.878 200.004 26.878Z" fill="#02DF81"/>
<path d="M215.958 28.4501V0H217.876V28.4501H215.958Z" fill="#02DF81"/>
<path d="M231.017 28.4501L222.007 8.43533H224.039L232.474 27.3765H231.554L240.066 8.43533H242.021L232.973 28.4501H231.017Z" fill="#02DF81"/>
<path d="M253.78 28.6034C251.761 28.6034 249.971 28.1689 248.412 27.2998C246.878 26.4307 245.664 25.2293 244.769 23.6956C243.9 22.1619 243.466 20.4109 243.466 18.4427C243.466 16.4489 243.875 14.6979 244.693 13.1898C245.536 11.6561 246.687 10.4547 248.144 9.5856C249.601 8.71651 251.237 8.28196 253.051 8.28196C254.866 8.28196 256.489 8.70372 257.921 9.54726C259.378 10.3908 260.515 11.5794 261.333 13.1131C262.177 14.6212 262.599 16.3722 262.599 18.366C262.599 18.4427 262.586 18.5322 262.56 18.6344C262.56 18.7111 262.56 18.8006 262.56 18.9028H244.884V17.4074H261.525L260.758 18.136C260.784 16.5767 260.451 15.1836 259.761 13.9566C259.097 12.7041 258.189 11.7328 257.039 11.0426C255.889 10.3269 254.56 9.96902 253.051 9.96902C251.569 9.96902 250.24 10.3269 249.064 11.0426C247.914 11.7328 247.006 12.7041 246.341 13.9566C245.677 15.1836 245.345 16.5895 245.345 18.1743V18.5194C245.345 20.1553 245.702 21.6123 246.418 22.8904C247.159 24.1429 248.169 25.127 249.447 25.8428C250.725 26.5329 252.182 26.878 253.818 26.878C255.096 26.878 256.285 26.648 257.384 26.1879C258.509 25.7277 259.455 25.0248 260.221 24.079L261.333 25.3443C260.464 26.4179 259.365 27.2359 258.036 27.7982C256.732 28.335 255.314 28.6034 253.78 28.6034Z" fill="#02DF81"/>
<path d="M268.529 28.4501V8.43533H270.37V13.9183L270.178 13.3048C270.741 11.6944 271.686 10.4547 273.015 9.5856C274.345 8.71651 276.006 8.28196 278 8.28196V10.1607C277.923 10.1607 277.847 10.1607 277.77 10.1607C277.693 10.1352 277.617 10.1224 277.54 10.1224C275.316 10.1224 273.578 10.8253 272.325 12.2312C271.073 13.6116 270.447 15.5415 270.447 18.0209V28.4501H268.529Z" fill="#02DF81"/>
<path d="M21.8253 2.88843C21.505 10.6224 16.7544 21.8207 14.4191 26.453H37.6384C40.5208 22.9083 43.7768 9.26631 45.0446 2.88843H21.8253Z" fill="#02DF81"/>
<path d="M49.4482 2.88843C45.7651 19.9677 42.9762 25.7145 42.0421 26.453H66.062C78.7125 26.453 82.4089 10.7433 82.6758 2.88843H49.4482Z" fill="#02DF81"/>
<path d="M9.21479 26.453C-0.593352 22.8277 0.00714678 16.9869 0.00714632 12.7573H15.6201C14.0188 18.1953 11.6168 23.8347 9.21479 26.453Z" fill="#02DF81"/>
</svg>
